<?xml version="1.0" encoding="UTF-8"?>
<svg width="14px" height="15px" viewBox="0 0 14 15" version="1.1" xmlns="http://www.w3.org/2000/svg" xmlns:xlink="http://www.w3.org/1999/xlink">
    <!-- Generator: Sketch 47.1 (45422) - http://www.bohemiancoding.com/sketch -->
    <title>Page 1</title>
    <desc>Created with Sketch.</desc>
    <defs></defs>
    <g id="Page-1" stroke="none" stroke-width="1" fill="none" fill-rule="evenodd">
        <g id="Desktop-HD" transform="translate(-915.000000, -1145.000000)" fill="#39B2E5">
            <g id="Code-Section" transform="translate(138.000000, 627.000000)">
                <g id="Use-Cases" transform="translate(496.000000, 239.000000)">
                    <path d="M295,286.499999 C295,286.846601 294.8827,287.138638 294.648097,287.376122 L288.456521,293.643774 C288.209237,293.881259 287.920745,294 287.591032,294 C287.267662,294 286.982337,293.881259 286.735053,293.643774 L286.021739,292.921694 C285.780795,292.677791 285.660326,292.385753 285.660326,292.045571 C285.660326,291.70539 285.780795,291.413352 286.021739,291.169448 L288.808424,288.348523 L282.112772,288.348523 C281.78306,288.348523 281.515173,288.228178 281.309103,287.987485 C281.103033,287.74679 281,287.456357 281,287.116175 L281,285.883825 C281,285.543643 281.103033,285.25321 281.309103,285.012515 C281.515173,284.771822 281.78306,284.651477 282.112772,284.651477 L288.808424,284.651477 L286.021739,281.820925 C285.780795,281.589857 285.660326,281.301029 285.660326,280.954429 C285.660326,280.607829 285.780795,280.319001 286.021739,280.087933 L286.735053,279.365854 C286.975997,279.12195 287.26132,279 287.591032,279 C287.927085,279 288.215578,279.12195 288.456521,279.365854 L294.648097,285.633505 C294.8827,285.858153 295,286.146981 295,286.499999 Z" id="Page-1"></path>
                </g>
            </g>
        </g>
    </g>
</svg>