<?xml version="1.0" encoding="UTF-8"?>
<svg width="18px" height="17px" viewBox="0 0 18 17" version="1.1" xmlns="http://www.w3.org/2000/svg" xmlns:xlink="http://www.w3.org/1999/xlink">
    <!-- Generator: Sketch 47.1 (45422) - http://www.bohemiancoding.com/sketch -->
    <title>Page 1</title>
    <desc>Created with Sketch.</desc>
    <defs></defs>
    <g id="Page-1" stroke="none" stroke-width="1" fill="none" fill-rule="evenodd">
        <g id="Desktop-HD" transform="translate(-828.000000, -1611.000000)" fill="#39E5E0">
            <g id="K8s-Cluster-Info" transform="translate(-1.000000, 1157.000000)">
                <path d="M845.375366,464.969418 C845.594331,465.125823 845.656891,465.313503 845.56305,465.532468 L845.56305,465.62631 L845.516129,465.62631 L844.202346,467.92543 C844.045941,468.175676 843.826979,468.222596 843.545454,468.066193 C843.514173,468.066193 843.482894,468.050552 843.451613,468.019272 L839.369501,465.673231 L839.369501,470.506075 C839.369501,470.756321 839.228739,470.912722 838.947214,470.975284 L836.225806,470.975284 C835.913,470.975284 835.756598,470.818882 835.756598,470.506075 L835.756598,470.365313 L835.756598,465.673231 L831.580645,468.066193 C831.36168,468.253877 831.158359,468.222596 830.970674,467.972351 L829.56305,465.579389 C829.406646,465.297864 829.469207,465.078902 829.750733,464.922498 C829.782014,464.922498 829.797654,464.914678 829.797654,464.899036 C829.797654,464.883396 829.813294,464.875577 829.844575,464.875577 L833.973607,462.529536 L829.750733,460.136574 L829.750733,460.089653 C829.469207,459.933248 829.406646,459.729929 829.56305,459.479682 L830.923754,457.180562 L830.923754,457.133641 C831.080157,456.852116 831.299119,456.789553 831.580645,456.945958 L835.756598,459.385841 L835.756598,454.552996 C835.756598,454.24019 835.913,454.083788 836.225806,454.083788 L838.900293,454.083788 C839.2131,454.083788 839.369501,454.24019 839.369501,454.552996 L839.369501,459.385841 L843.592375,456.992879 C843.842622,456.836474 844.045941,456.883395 844.202346,457.133641 L845.516129,459.432762 L845.56305,459.479682 C845.719454,459.761207 845.656891,459.980169 845.375366,460.136574 L841.199413,462.529536 L845.375366,464.922498 L845.375366,464.969418 Z" id="Page-1" transform="translate(837.563050, 462.529536) rotate(90.000000) translate(-837.563050, -462.529536) "></path>
            </g>
        </g>
    </g>
</svg>