<?xml version="1.0" encoding="UTF-8"?>
<svg width="18px" height="17px" viewBox="0 0 18 17" version="1.1" xmlns="http://www.w3.org/2000/svg" xmlns:xlink="http://www.w3.org/1999/xlink">
    <!-- Generator: Sketch 47.1 (45422) - http://www.bohemiancoding.com/sketch -->
    <title>Page 1</title>
    <desc>Created with Sketch.</desc>
    <defs></defs>
    <g id="Page-1" stroke="none" stroke-width="1" fill="none" fill-rule="evenodd">
        <g id="Desktop-HD" transform="translate(-151.000000, -1640.000000)" fill="#50E3C2">
            <g id="K8s-Cluster-Info" transform="translate(-32.000000, 1349.000000)">
                <path d="M199.375366,301.969418 C199.594331,302.125823 199.656891,302.313503 199.56305,302.532468 L199.56305,302.62631 L199.516129,302.62631 L198.202346,304.92543 C198.045941,305.175676 197.826979,305.222596 197.545454,305.066193 C197.514173,305.066193 197.482894,305.050552 197.451613,305.019272 L193.369501,302.673231 L193.369501,307.506075 C193.369501,307.756321 193.228739,307.912722 192.947214,307.975284 L190.225806,307.975284 C189.913,307.975284 189.756598,307.818882 189.756598,307.506075 L189.756598,307.365313 L189.756598,302.673231 L185.580645,305.066193 C185.36168,305.253877 185.158359,305.222596 184.970674,304.972351 L183.56305,302.579389 C183.406646,302.297864 183.469207,302.078902 183.750733,301.922498 C183.782014,301.922498 183.797654,301.914678 183.797654,301.899036 C183.797654,301.883396 183.813294,301.875577 183.844575,301.875577 L187.973607,299.529536 L183.750733,297.136574 L183.750733,297.089653 C183.469207,296.933248 183.406646,296.729929 183.56305,296.479682 L184.923754,294.180562 L184.923754,294.133641 C185.080157,293.852116 185.299119,293.789553 185.580645,293.945958 L189.756598,296.385841 L189.756598,291.552996 C189.756598,291.24019 189.913,291.083788 190.225806,291.083788 L192.900293,291.083788 C193.2131,291.083788 193.369501,291.24019 193.369501,291.552996 L193.369501,296.385841 L197.592375,293.992879 C197.842622,293.836474 198.045941,293.883395 198.202346,294.133641 L199.516129,296.432762 L199.56305,296.479682 C199.719454,296.761207 199.656891,296.980169 199.375366,297.136574 L195.199413,299.529536 L199.375366,301.922498 L199.375366,301.969418 Z" id="Page-1" transform="translate(191.563050, 299.529536) rotate(90.000000) translate(-191.563050, -299.529536) "></path>
            </g>
        </g>
    </g>
</svg>