<?xml version="1.0" encoding="UTF-8"?>
<svg width="17px" height="18px" viewBox="0 0 17 18" version="1.1" xmlns="http://www.w3.org/2000/svg" xmlns:xlink="http://www.w3.org/1999/xlink">
    <!-- Generator: Sketch 47.1 (45422) - http://www.bohemiancoding.com/sketch -->
    <title>Page 1</title>
    <desc>Created with Sketch.</desc>
    <defs></defs>
    <g id="Page-1" stroke="none" stroke-width="1" fill="none" fill-rule="evenodd">
        <g id="Desktop-HD" transform="translate(-151.000000, -1609.000000)" fill="#F14577">
            <g id="K8s-Cluster-Info" transform="translate(-32.000000, 1349.000000)">
                <path d="M198.896105,271.322581 C199.115069,271.478985 199.17763,271.666666 199.083788,271.88563 L199.083788,271.979472 L199.036867,271.979472 L197.723084,274.278592 C197.566679,274.528838 197.347717,274.575758 197.066193,274.419355 C197.034911,274.419355 197.003632,274.403715 196.972351,274.372434 L192.890239,272.026393 L192.890239,276.859238 C192.890239,277.109483 192.749477,277.265884 192.467952,277.328446 L189.746544,277.328446 C189.433738,277.328446 189.277336,277.172045 189.277336,276.859238 L189.277336,276.718475 L189.277336,272.026393 L185.101383,274.419355 C184.882418,274.607039 184.679097,274.575759 184.491413,274.325513 L183.083788,271.932551 C182.927384,271.651026 182.989945,271.432065 183.271471,271.27566 C183.302752,271.27566 183.318392,271.26784 183.318392,271.252198 C183.318392,271.236559 183.334032,271.228739 183.365313,271.228739 L187.494345,268.882698 L183.271471,266.489736 L183.271471,266.442815 C182.989945,266.286411 182.927384,266.083091 183.083788,265.832845 L184.444492,263.533724 L184.444492,263.486804 C184.600895,263.205279 184.819857,263.142715 185.101383,263.29912 L189.277336,265.739003 L189.277336,260.906158 C189.277336,260.593352 189.433738,260.43695 189.746544,260.43695 L192.421031,260.43695 C192.733838,260.43695 192.890239,260.593352 192.890239,260.906158 L192.890239,265.739003 L197.113113,263.346041 C197.36336,263.189636 197.566679,263.236557 197.723084,263.486804 L199.036867,265.785924 L199.083788,265.832845 C199.240193,266.11437 199.17763,266.333331 198.896105,266.489736 L194.720152,268.882698 L198.896105,271.27566 L198.896105,271.322581 Z" id="Page-1"></path>
            </g>
        </g>
    </g>
</svg>