<?xml version="1.0" encoding="UTF-8"?>
<svg width="17px" height="18px" viewBox="0 0 17 18" version="1.1" xmlns="http://www.w3.org/2000/svg" xmlns:xlink="http://www.w3.org/1999/xlink">
    <!-- Generator: Sketch 47.1 (45422) - http://www.bohemiancoding.com/sketch -->
    <title>Page 1</title>
    <desc>Created with Sketch.</desc>
    <defs></defs>
    <g id="Page-1" stroke="none" stroke-width="1" fill="none" fill-rule="evenodd">
        <g id="Desktop-HD" transform="translate(-828.000000, -1640.000000)" fill="#39B2E5">
            <g id="K8s-Cluster-Info" transform="translate(-1.000000, 1157.000000)">
                <path d="M844.896105,494.322581 C845.115069,494.478985 845.17763,494.666666 845.083788,494.88563 L845.083788,494.979472 L845.036867,494.979472 L843.723084,497.278592 C843.566679,497.528838 843.347717,497.575758 843.066193,497.419355 C843.034911,497.419355 843.003632,497.403715 842.972351,497.372434 L838.890239,495.026393 L838.890239,499.859238 C838.890239,500.109483 838.749477,500.265884 838.467952,500.328446 L835.746544,500.328446 C835.433738,500.328446 835.277336,500.172045 835.277336,499.859238 L835.277336,499.718475 L835.277336,495.026393 L831.101383,497.419355 C830.882418,497.607039 830.679097,497.575759 830.491413,497.325513 L829.083788,494.932551 C828.927384,494.651026 828.989945,494.432065 829.271471,494.27566 C829.302752,494.27566 829.318392,494.26784 829.318392,494.252198 C829.318392,494.236559 829.334032,494.228739 829.365313,494.228739 L833.494345,491.882698 L829.271471,489.489736 L829.271471,489.442815 C828.989945,489.286411 828.927384,489.083091 829.083788,488.832845 L830.444492,486.533724 L830.444492,486.486804 C830.600895,486.205279 830.819857,486.142715 831.101383,486.29912 L835.277336,488.739003 L835.277336,483.906158 C835.277336,483.593352 835.433738,483.43695 835.746544,483.43695 L838.421031,483.43695 C838.733838,483.43695 838.890239,483.593352 838.890239,483.906158 L838.890239,488.739003 L843.113113,486.346041 C843.36336,486.189636 843.566679,486.236557 843.723084,486.486804 L845.036867,488.785924 L845.083788,488.832845 C845.240193,489.11437 845.17763,489.333331 844.896105,489.489736 L840.720152,491.882698 L844.896105,494.27566 L844.896105,494.322581 Z" id="Page-1"></path>
            </g>
        </g>
    </g>
</svg>