<?xml version="1.0" encoding="UTF-8"?>
<svg width="562px" height="342px" viewBox="0 0 562 342" version="1.1" xmlns="http://www.w3.org/2000/svg" xmlns:xlink="http://www.w3.org/1999/xlink">
    <!-- Generator: Sketch 47.1 (45422) - http://www.bohemiancoding.com/sketch -->
    <title>final final</title>
    <desc>Created with Sketch.</desc>
    <defs>
        <rect id="path-1" x="4.80105581" y="32.9030183" width="219.672219" height="65.557292"></rect>
        <circle id="path-3" cx="22.1855676" cy="16.1597646" r="11.6662434"></circle>
        <circle id="path-4" cx="80.7717163" cy="34.4380552" r="13.8486711"></circle>
        <circle id="path-5" cx="153.864838" cy="16.9053257" r="16.033004"></circle>
        <rect id="path-6" x="4.80105581" y="32.9030183" width="219.672219" height="65.557292"></rect>
        <circle id="path-8" cx="22.1855676" cy="18.1597646" r="11.6662434"></circle>
        <circle id="path-9" cx="81.7717163" cy="34.4380552" r="13.8486711"></circle>
        <circle id="path-10" cx="154.864838" cy="16.9053257" r="16.033004"></circle>
        <ellipse id="path-11" cx="14.0693546" cy="13.1946021" rx="12.8440209" ry="13.1946021"></ellipse>
        <ellipse id="path-12" cx="14.0693546" cy="98.3808051" rx="12.8440209" ry="13.1946021"></ellipse>
        <circle id="path-13" cx="13.375" cy="13.8806529" r="13.375"></circle>
        <ellipse id="path-14" cx="12.9358844" cy="85.9993632" rx="12.9358844" ry="13.0998427"></ellipse>
    </defs>
    <g id="Page-1" stroke="none" stroke-width="1" fill="none" fill-rule="evenodd">
        <g id="6" transform="translate(-2551.000000, -3130.000000)">
            <g id="final-final" transform="translate(2551.000000, 3109.000000)">
                <g id="bottom-nodes" transform="translate(143.000000, 226.000000)">
                    <g id="dotted-arc" transform="translate(115.494933, 66.050257) scale(1, -1) translate(-115.494933, -66.050257) translate(0.494933, 0.550257)">
                        <mask id="mask-2" fill="white">
                            <use xlink:href="#path-1"></use>
                        </mask>
                        <g id="Rectangle-4" transform="translate(114.637165, 65.681664) rotate(-18.000000) translate(-114.637165, -65.681664) "></g>
                        <circle stroke="#27759A" stroke-width="8" stroke-linecap="round" stroke-linejoin="round" stroke-dasharray="10,20" mask="url(#mask-2)" transform="translate(155.041353, 157.758415) rotate(-251.000000) translate(-155.041353, -157.758415) " cx="155.041353" cy="157.758415" r="116.272039"></circle>
                    </g>
                    <g id="Group-7" transform="translate(71.000000, 55.000000)">
                        <path d="M28.0996788,12.0514191 L2.21533356,45.9853724" id="Path-4" stroke="#387498" stroke-width="10" stroke-linecap="round" transform="translate(15.157506, 29.018396) rotate(-7.000000) translate(-15.157506, -29.018396) "></path>
                        <path d="M149.030328,10.7167665 L170.586227,47.5522894" id="Path-4" stroke="#387498" stroke-width="10" stroke-linecap="round"></path>
                        <path d="M80.3139324,33.4630162 L80.3139324,76.1448816" id="Path-5" stroke="#387498" stroke-width="10" stroke-linecap="round"></path>
                        <g id="Oval-5">
                            <use fill="#FFFFFF" fill-rule="evenodd" xlink:href="#path-3"></use>
                            <circle stroke="#387498" stroke-width="8" cx="22.1855676" cy="16.1597646" r="7.66624339"></circle>
                        </g>
                        <g id="Oval-5">
                            <use fill="#FFFFFF" fill-rule="evenodd" xlink:href="#path-4"></use>
                            <circle stroke="#387498" stroke-width="8" cx="80.7717163" cy="34.4380552" r="9.8486711"></circle>
                        </g>
                        <g id="Oval-5">
                            <use fill="#B9E884" fill-rule="evenodd" xlink:href="#path-5"></use>
                            <circle stroke="#387498" stroke-width="8" cx="153.864838" cy="16.9053257" r="12.033004"></circle>
                        </g>
                    </g>
                </g>
                <g id="bottom-nodes" transform="translate(322.000000, 79.000000) scale(-1, -1) translate(-322.000000, -79.000000) translate(198.000000, 0.000000)">
                    <g id="dotted-arc" transform="translate(115.494933, 66.050257) scale(1, -1) translate(-115.494933, -66.050257) translate(0.494933, 0.550257)">
                        <mask id="mask-7" fill="white">
                            <use xlink:href="#path-6"></use>
                        </mask>
                        <g id="Rectangle-4" transform="translate(114.637165, 65.681664) rotate(-18.000000) translate(-114.637165, -65.681664) "></g>
                        <circle stroke="#27759A" stroke-width="8" stroke-linecap="round" stroke-linejoin="round" stroke-dasharray="10,20" mask="url(#mask-7)" transform="translate(152.041353, 157.758415) rotate(-235.000000) translate(-152.041353, -157.758415) " cx="152.041353" cy="157.758415" r="116.272039"></circle>
                    </g>
                    <g id="Group-7" transform="translate(70.000000, 55.000000)">
                        <path d="M28.0996788,14.0514191 L2.21533356,47.9853724" id="Path-4" stroke="#387498" stroke-width="10" stroke-linecap="round" transform="translate(15.157506, 31.018396) rotate(-7.000000) translate(-15.157506, -31.018396) "></path>
                        <path d="M150.030328,10.7167665 L171.586227,47.5522894" id="Path-4" stroke="#387498" stroke-width="10" stroke-linecap="round"></path>
                        <path d="M81.3139324,33.4630162 L81.3139324,76.1448816" id="Path-5" stroke="#387498" stroke-width="10" stroke-linecap="round"></path>
                        <g id="Oval-5">
                            <use fill="#FFFFFF" fill-rule="evenodd" xlink:href="#path-8"></use>
                            <circle stroke="#387498" stroke-width="8" cx="22.1855676" cy="18.1597646" r="7.66624339"></circle>
                        </g>
                        <g id="Oval-5">
                            <use fill="#FFFFFF" fill-rule="evenodd" xlink:href="#path-9"></use>
                            <circle stroke="#387498" stroke-width="8" cx="81.7717163" cy="34.4380552" r="9.8486711"></circle>
                        </g>
                        <g id="Oval-5">
                            <use fill="#F48996" fill-rule="evenodd" xlink:href="#path-10"></use>
                            <circle stroke="#387498" stroke-width="8" cx="154.864838" cy="16.9053257" r="12.033004"></circle>
                        </g>
                    </g>
                </g>
                <g id="BRIGADE-TEXT" transform="translate(0.000000, 134.000000)">
                    <ellipse id="white-fill" stroke="#FFFFFF" stroke-width="39" fill="#27759A" cx="415.069355" cy="20.8053979" rx="12.8440209" ry="13.1946021"></ellipse>
                    <path d="M0,6.81602374 L35.4644803,6.81602374 C40.6174648,6.81602374 45.4672597,7.19435823 50.0140107,7.95103858 C54.5607617,8.70771892 58.5012201,9.9940562 61.8355042,11.810089 C65.1697882,13.6261218 67.8220198,16.1231295 69.7922786,19.3011869 C71.7625374,22.4792444 72.747652,26.48959 72.747652,31.3323442 C72.747652,33.4510492 72.4445398,35.5949446 71.8383063,37.764095 C71.2320728,39.9332453 70.2469582,42.0014738 68.882933,43.9688427 C67.5189077,45.9362116 65.8012719,47.6765503 63.7299743,49.189911 C61.6586766,50.7032717 59.2085198,51.8130528 56.3794303,52.5192878 L56.3794303,53.1246291 C63.3511151,54.5370991 68.5798003,57.0845513 72.0656427,60.7670623 C75.5514851,64.4495733 77.2943802,69.5697001 77.2943802,76.1275964 C77.2943802,81.172132 76.2587469,85.5355899 74.1874492,89.2181009 C72.1161516,92.9006119 69.3376232,95.9272878 65.8517808,98.2982196 C62.3659384,100.669151 58.2486645,102.40949 53.4998357,103.519288 C48.7510069,104.629086 43.7496559,105.183976 38.4956325,105.183976 L0,105.183976 L0,6.81602374 Z M34.8582499,45.5578635 C39.1018841,45.5578635 42.2340434,44.5994161 44.2548216,42.6824926 C46.2755998,40.7655691 47.2859738,38.2937837 47.2859738,35.2670623 C47.2859738,32.2403409 46.2755998,30.0712232 44.2548216,28.7596439 C42.2340434,27.4480647 39.1018841,26.7922849 34.8582499,26.7922849 L26.0679086,26.7922849 L26.0679086,45.5578635 L34.8582499,45.5578635 Z M36.6769412,85.2077151 C46.7808323,85.2077151 51.832702,81.4748148 51.832702,74.0089021 C51.832702,70.3768364 50.5949939,67.7537173 48.1195406,66.1394659 C45.6440873,64.5252145 41.8299256,63.7181009 36.6769412,63.7181009 L26.0679086,63.7181009 L26.0679086,85.2077151 L36.6769412,85.2077151 Z M113.309979,51.611276 L122.706551,51.611276 C133.214598,51.611276 138.468542,47.2730404 138.468542,38.5964392 C138.468542,34.3590293 137.129797,31.4332425 134.452265,29.8189911 C131.774734,28.2047397 127.859535,27.3976261 122.706551,27.3976261 L113.309979,27.3976261 L113.309979,51.611276 Z M140.287233,105.183976 L123.312781,72.1928783 L113.309979,72.1928783 L113.309979,105.183976 L87.2420705,105.183976 L87.2420705,6.81602374 L124.525242,6.81602374 C129.779265,6.81602374 134.805876,7.32046973 139.605224,8.32937685 C144.404572,9.33828398 148.597624,11.0534004 152.184506,13.4747774 C155.771387,15.8961545 158.625693,19.1498312 160.747511,23.235905 C162.869328,27.3219789 163.93022,32.4421057 163.93022,38.5964392 C163.93022,45.658789 162.490437,51.5103626 159.610828,56.1513353 C156.731219,60.7923081 152.866539,64.4243192 148.016671,67.0474777 L169.386294,105.183976 L140.287233,105.183976 Z M212.285174,56.7566766 C212.285174,48.4836382 213.59866,41.1439489 216.225672,34.7373887 C218.852684,28.3308285 222.439511,22.9332564 226.986262,18.5445104 C231.533013,14.1557644 236.812217,10.8011985 242.824032,8.48071217 C248.835847,6.16022579 255.226463,5 261.99607,5 C268.967754,5 275.080517,6.28633728 280.33454,8.85905045 C285.588564,11.4317636 289.98369,14.4836619 293.520052,18.0148368 L279.273637,34.0563798 C276.848703,31.9376749 274.398546,30.2982254 271.923093,29.1379822 C269.44764,27.977739 266.239702,27.3976261 262.299185,27.3976261 C258.964901,27.3976261 255.88326,28.0534059 253.054171,29.3649852 C250.225081,30.6765644 247.749665,32.5430146 245.627848,34.9643917 C243.506031,37.3857688 241.864173,40.3620001 240.702226,43.8931751 C239.540278,47.42435 238.959313,51.4094734 238.959313,55.8486647 C238.959313,65.1306102 241.03058,72.2432987 245.173175,77.1869436 C249.31577,82.1305885 255.832682,84.6023739 264.724107,84.6023739 C266.138651,84.6023739 267.527915,84.4510401 268.891941,84.148368 C270.255966,83.8456958 271.392637,83.3916944 272.301987,82.7863501 L272.301987,69.1661721 L257.752457,69.1661721 L257.752457,47.9792285 L295.338743,47.9792285 L295.338743,94.8931751 C291.701343,98.2225686 286.876807,101.072688 280.864992,103.44362 C274.853177,105.814552 268.361524,107 261.389839,107 C254.620232,107 248.254876,105.965886 242.29358,103.897626 C236.332285,101.829367 231.128859,98.7018014 226.683147,94.5148368 C222.237435,90.3278722 218.726385,85.0816339 216.149893,78.7759644 C213.573401,72.4702949 212.285174,65.1306057 212.285174,56.7566766 Z M354.46854,64.1721068 L352.801407,57.3620178 C351.58894,52.6201543 350.376491,47.4748052 349.164024,41.925816 C347.951557,36.3768269 346.739108,31.1305885 345.526642,26.1869436 L344.920411,26.1869436 C343.808983,31.2314792 342.672312,36.5029399 341.510365,42.0014837 C340.348417,47.5000275 339.161228,52.6201543 337.948761,57.3620178 L336.281627,64.1721068 L354.46854,64.1721068 Z M359.166826,84.2997033 L331.583342,84.2997033 L326.733498,105.183976 L300.059359,105.183976 L330.067765,6.81602374 L361.591748,6.81602374 L391.600154,105.183976 L364.01667,105.183976 L359.166826,84.2997033 Z M403.080841,6.81602374 L432.179902,6.81602374 C439.656781,6.81602374 446.502065,7.72402653 452.715958,9.54005935 C458.929851,11.3560922 464.259574,14.2314343 468.705286,18.1661721 C473.150998,22.1009099 476.611528,27.1453698 479.086982,33.2997033 C481.562435,39.4540367 482.800143,46.8693928 482.800143,55.5459941 C482.800143,64.2225953 481.587694,71.688396 479.162761,77.9436202 C476.737827,84.1988443 473.327815,89.3441935 468.932622,93.379822 C464.537429,97.4154504 459.334004,100.391682 453.322188,102.308605 C447.310373,104.225529 440.768202,105.183976 433.695478,105.183976 L403.080841,105.183976 L403.080841,6.81602374 Z M430.664326,84.2997033 C434.200688,84.2997033 437.534922,83.8709242 440.667128,83.0133531 C443.799334,82.1557821 446.502085,80.6676664 448.77546,78.5489614 C451.048836,76.4302565 452.842249,73.5044697 454.155755,69.7715134 C455.469261,66.038557 456.126004,61.2967647 456.126004,55.5459941 C456.126004,49.7952235 455.469261,45.1038757 454.155755,41.4718101 C452.842249,37.8397445 451.048836,35.0148469 448.77546,32.9970326 C446.502085,30.9792184 443.799334,29.5919919 440.667128,28.8353116 C437.534922,28.0786312 434.200688,27.7002967 430.664326,27.7002967 L429.14875,27.7002967 L429.14875,84.2997033 L430.664326,84.2997033 Z M496.830228,6.81602374 L560.484424,6.81602374 L560.484424,28.6083086 L522.898137,28.6083086 L522.898137,44.0445104 L555.02835,44.0445104 L555.02835,65.8367953 L522.898137,65.8367953 L522.898137,83.3916914 L562,83.3916914 L562,105.183976 L496.830228,105.183976 L496.830228,6.81602374 Z" id="BIRDAGE" fill="#27759A"></path>
                    <g id="fills" transform="translate(172.000000, 38.000000)" fill="#FFFFFF">
                        <path d="M128.742328,22.9056675 C128.730592,14.7864978 124.695536,10.7269129 116.63716,10.7269129 C108.578785,10.7269129 108.96192,7.86546659 117.786568,2.1425739 L131.83825,0.498795517 L139.805505,9.01426853 L128.742328,22.9056675 Z" id="Path-14"></path>
                    </g>
                    <g id="i" transform="translate(190.500000, 62.000000) scale(1, -1) translate(-190.500000, -62.000000) translate(177.000000, 6.000000)">
                        <ellipse id="fill-white" stroke="#FFFFFF" stroke-width="10" cx="13.0693546" cy="13.1952905" rx="17.8440209" ry="18.1946021"></ellipse>
                        <rect id="Rectangle-8" fill="#437396" x="1.2253337" y="12.7316336" width="25.6880418" height="85.6491715"></rect>
                        <g id="Oval-5">
                            <use fill="#FFFFFF" fill-rule="evenodd" xlink:href="#path-11"></use>
                            <ellipse stroke="#387498" stroke-width="8" cx="14.0693546" cy="13.1946021" rx="8.84402088" ry="9.19460209"></ellipse>
                        </g>
                        <g id="Oval-5">
                            <use fill="#387498" fill-rule="evenodd" xlink:href="#path-12"></use>
                            <ellipse stroke="#387498" stroke-width="8" cx="14.0693546" cy="98.3808051" rx="8.84402088" ry="9.19460209"></ellipse>
                        </g>
                    </g>
                    <g id="d" transform="translate(402.000000, 0.000000)">
                        <rect id="Rectangle-2" fill="#FFFFFF" x="0" y="0" width="13.0600004" height="36.7714883"></rect>
                        <rect id="Rectangle-2" fill="#FFFFFF" x="0.446688169" y="81.7358488" width="13.6167204" height="26.659329"></rect>
                        <g id="Group-5" transform="translate(0.446688, 6.354298)">
                            <rect id="Rectangle-8" fill="#437396" transform="translate(12.935884, 49.158861) scale(1, -1) translate(-12.935884, -49.158861) " x="0" y="12.5941899" width="25.8717688" height="73.1293423"></rect>
                            <g id="Oval-5" transform="translate(13.375000, 13.880653) scale(1, -1) translate(-13.375000, -13.880653) ">
                                <use fill="#FFFFFF" fill-rule="evenodd" xlink:href="#path-13"></use>
                                <circle stroke="#387498" stroke-width="8" cx="13.375" cy="13.8806529" r="9.375"></circle>
                            </g>
                            <g id="Oval-5" transform="translate(12.935884, 85.999363) scale(1, -1) translate(-12.935884, -85.999363) ">
                                <use fill="#387498" fill-rule="evenodd" xlink:href="#path-14"></use>
                                <ellipse stroke="#387498" stroke-width="8" cx="12.9358844" cy="85.9993632" rx="8.9358844" ry="9.09984272"></ellipse>
                            </g>
                        </g>
                    </g>
                </g>
            </g>
        </g>
    </g>
</svg>