<?xml version="1.0" encoding="UTF-8"?>
<svg width="94px" height="335px" viewBox="0 0 94 335" version="1.1" xmlns="http://www.w3.org/2000/svg" xmlns:xlink="http://www.w3.org/1999/xlink">
    <!-- Generator: Sketch 47.1 (45422) - http://www.bohemiancoding.com/sketch -->
    <title>Left pipes</title>
    <desc>Created with Sketch.</desc>
    <defs></defs>
    <g id="Page-1" stroke="none" stroke-width="1" fill="none" fill-rule="evenodd">
        <g id="Desktop-HD" transform="translate(0.000000, -1392.000000)">
            <g id="K8s-Cluster-Info" transform="translate(-32.000000, 1349.000000)">
                <g id="pipes" transform="translate(0.000000, 8.000000)">
                    <g id="Left-pipes">
                        <g id="Group-3">
                            <path d="M0.96981899,0.301655832 L0.96981899,70.9730534 C0.974718035,86.1671393 8.53587148,93.7641822 23.6532793,93.7641822 C38.7706871,93.7641822 67.2314797,93.7641822 109.035657,93.7641822" id="Path-4" stroke="#39B2E5" stroke-width="16" opacity="0.200000018" stroke-linecap="square" stroke-linejoin="round"></path>
                            <rect id="Rectangle-9" fill="#D7F0FA" x="119" y="82.2659988" width="7" height="25"></rect>
                        </g>
                        <path d="M-125,181.531998 L-125,201.203395 C-124.995101,216.397481 -117.433948,223.994524 -102.31654,223.994524 C-87.1991318,223.994524 4.59499405,223.994524 173.065838,223.994524 C186.355279,224.218989 193,217.542729 193,203.965743 C193,190.388758 193,182.73351 193,181" id="Path-4" stroke="#39E57A" stroke-width="16" opacity="0.200000018" stroke-linecap="square" stroke-linejoin="round" transform="translate(34.000000, 202.500000) rotate(-90.000000) translate(-34.000000, -202.500000) "></path>
                    </g>
                </g>
            </g>
        </g>
    </g>
</svg>