<?xml version="1.0" encoding="UTF-8"?>
<svg width="369px" height="193px" viewBox="0 0 369 193" version="1.1" xmlns="http://www.w3.org/2000/svg" xmlns:xlink="http://www.w3.org/1999/xlink">
    <!-- Generator: Sketch 47.1 (45422) - http://www.bohemiancoding.com/sketch -->
    <title>pipes pattern</title>
    <desc>Created with Sketch.</desc>
    <defs></defs>
    <g id="Page-1" stroke="none" stroke-width="1" fill="none" fill-rule="evenodd">
        <g id="Desktop-HD" transform="translate(-771.000000, -619.000000)">
            <g id="Code-Section" transform="translate(138.000000, 627.000000)">
                <g id="pipes-pattern" transform="translate(641.000000, 0.000000)">
                    <path d="M0,1.53199765 L0,21.2033952 C0.00489904549,36.3974811 7.56605249,43.994524 22.6834603,43.994524 C37.8008682,43.994524 129.594994,43.994524 298.065838,43.994524 C311.355279,44.2189888 318,37.5427286 318,23.9657433 C318,10.388758 318,2.73351022 318,1" id="Path-4" stroke="#39B2E5" stroke-width="16" opacity="0.200000018" stroke-linecap="square" stroke-linejoin="round"></path>
                    <path d="M240,0.531997654 L240,71.2033952 C240.004899,86.3974811 247.566052,93.994524 262.68346,93.994524 C277.800868,93.994524 369.594994,93.994524 538.065838,93.994524 C551.355279,94.2189888 558,87.5427286 558,73.9657433 C558,60.388758 558,52.7335102 558,51" id="Path-4" stroke="#39E57A" stroke-width="16" opacity="0.200000018" stroke-linecap="square" stroke-linejoin="round"></path>
                    <path d="M325.969819,66.035657 L325.969819,136.707055 C325.974718,151.90114 333.535871,159.498183 348.653279,159.498183 C363.770687,159.498183 392.23148,159.498183 434.035657,159.498183" id="Path-4" stroke="#39B2E5" stroke-width="16" opacity="0.200000018" stroke-linecap="square" stroke-linejoin="round" transform="translate(380.002738, 112.766920) rotate(-270.000000) translate(-380.002738, -112.766920) "></path>
                    <path d="M42.6834603,113.994524 C57.8008682,113.994524 69.5949941,113.994524 78.065838,113.994524 C91.3552793,114.218989 98,107.542729 98,93.9657433 C98,80.388758 98,49.4001769 98,1" id="Path-4" stroke="#F14577" stroke-width="16" opacity="0.200000018" stroke-linecap="square" stroke-linejoin="round"></path>
                    <rect id="Rectangle-9" fill="#FCDAE4" x="25" y="102" width="7" height="24"></rect>
                    <rect id="Rectangle-9" fill="#D7F0FA" transform="translate(332.500000, 181.500000) rotate(-90.000000) translate(-332.500000, -181.500000) " x="329" y="169" width="7" height="25"></rect>
                </g>
            </g>
        </g>
    </g>
</svg>