<?xml version="1.0" encoding="UTF-8"?>
<svg width="552px" height="328px" viewBox="0 0 552 328" version="1.1" xmlns="http://www.w3.org/2000/svg" xmlns:xlink="http://www.w3.org/1999/xlink">
    <!-- Generator: Sketch 47.1 (45422) - http://www.bohemiancoding.com/sketch -->
    <title>Group 4</title>
    <desc>Created with Sketch.</desc>
    <defs></defs>
    <g id="Page-1" stroke="none" stroke-width="1" fill="none" fill-rule="evenodd">
        <g id="Desktop-HD" transform="translate(-588.000000, -1437.000000)">
            <g id="K8s-Cluster-Info" transform="translate(-32.000000, 1349.000000)">
                <g id="Group-4" transform="translate(620.000000, 88.000000)">
                    <g id="Group-3" transform="translate(398.500000, 221.500000)">
                        <path d="M0.96981899,0.301655832 L0.96981899,70.9730534 C0.974718035,86.1671393 8.53587148,93.7641822 23.6532793,93.7641822 C38.7706871,93.7641822 67.2314797,93.7641822 109.035657,93.7641822" id="Path-4" stroke="#39E57A" stroke-width="16" opacity="0.200000018" stroke-linecap="square" stroke-linejoin="round"></path>
                        <rect id="Rectangle-9" fill="#39E57A" opacity="0.2" x="119" y="81.2659988" width="7" height="25"></rect>
                    </g>
                    <g id="Group-3" transform="translate(63.000000, 54.000000) scale(-1, -1) translate(-63.000000, -54.000000) ">
                        <path d="M0.96981899,0.301655832 L0.96981899,70.9730534 C0.974718035,86.1671393 8.53587148,93.7641822 23.6532793,93.7641822 C38.7706871,93.7641822 67.2314797,93.7641822 109.035657,93.7641822" id="Path-4" stroke="#39B2E5" stroke-width="16" opacity="0.200000018" stroke-linecap="square" stroke-linejoin="round"></path>
                        <rect id="Rectangle-9" fill="#D7F0FA" x="119" y="82.2659988" width="7" height="25"></rect>
                    </g>
                    <g id="Group-2" transform="translate(267.000000, 167.000000)" stroke="#F14577" stroke-width="16" stroke-linecap="square" opacity="0.200000018" stroke-linejoin="round">
                        <path d="M0.683460321,112.994524 C15.8008682,112.994524 104.261661,112.994524 266.065838,112.994524 C279.355279,113.218989 286,106.542729 286,92.9657433 C286,79.388758 286,48.4001769 286,0" id="Path-4" transform="translate(143.341730, 56.500000) scale(-1, 1) translate(-143.341730, -56.500000) "></path>
                    </g>
                </g>
            </g>
        </g>
    </g>
</svg>