<?xml version="1.0" encoding="UTF-8"?>
<svg width="752px" height="623px" viewBox="0 0 752 623" version="1.1" xmlns="http://www.w3.org/2000/svg" xmlns:xlink="http://www.w3.org/1999/xlink">
    <!-- Generator: Sketch 47.1 (45422) - http://www.bohemiancoding.com/sketch -->
    <title>export 04</title>
    <desc>Created with Sketch.</desc>
    <defs></defs>
    <g id="Page-1" stroke="none" stroke-width="1" fill="none" fill-rule="evenodd">
        <g id="Desktop-HD" transform="translate(-457.000000, -1660.000000)">
            <g id="Kashti" transform="translate(0.000000, 1668.000000)">
                <g id="Group-3" transform="translate(1070.000000, 307.500000) scale(-1, -1) rotate(-90.000000) translate(-1070.000000, -307.500000) translate(762.500000, -762.500000)">
                    <g id="Group-5">
                        <g id="export-04">
                            <rect id="Rectangle-16" transform="translate(392.000000, 1070.000000) rotate(90.000000) translate(-392.000000, -1070.000000) " x="-678" y="980" width="2140" height="180"></rect>
                            <path d="M0.777174874,939.221771 C77.5585375,939.221771 124.927859,939.221771 142.885139,939.221771 C160.842419,939.221771 169.870646,948.249998 169.969819,966.306451 L169.969819,1071.30166 L169.969819,1141.97305 C169.974718,1157.16714 177.535871,1164.76418 192.653279,1164.76418 C207.770687,1164.76418 236.23148,1164.76418 278.035657,1164.76418" id="Path-4" stroke="#39B2E5" stroke-width="16" opacity="0.200000018" stroke-linecap="square" stroke-linejoin="round"></path>
                            <g id="Group-3" transform="translate(561.500000, 1227.000000) scale(1, -1) rotate(-90.000000) translate(-561.500000, -1227.000000) translate(498.500000, 1173.500000)">
                                <path d="M0.96981899,0.301655832 L0.96981899,70.9730534 C0.974718035,86.1671393 8.53587148,93.7641822 23.6532793,93.7641822 C38.7706871,93.7641822 67.2314797,93.7641822 109.035657,93.7641822" id="Path-4" stroke="#39B2E5" stroke-width="16" opacity="0.200000018" stroke-linecap="square" stroke-linejoin="round"></path>
                                <rect id="Rectangle-9" fill="#D7F0FA" x="119" y="81.2659988" width="7" height="25"></rect>
                            </g>
                            <g id="Group-2" transform="translate(292.000000, 1401.500000) rotate(-270.000000) translate(-292.000000, -1401.500000) translate(19.000000, 1339.000000)" stroke="#F14577" stroke-width="16" stroke-linecap="square" opacity="0.200000018" stroke-linejoin="round">
                                <path d="M0.683460321,112.994524 C15.8008682,112.994524 190.928327,112.994524 526.065838,112.994524 C539.355279,113.218989 546,106.542729 546,92.9657433 C546,79.388758 546,48.4001769 546,0" id="Path-4" transform="translate(273.341730, 56.500000) scale(-1, 1) translate(-273.341730, -56.500000) "></path>
                            </g>
                        </g>
                    </g>
                </g>
            </g>
        </g>
    </g>
</svg>