<?xml version="1.0" encoding="UTF-8"?>
<svg width="483px" height="162px" viewBox="0 0 483 162" version="1.1" xmlns="http://www.w3.org/2000/svg" xmlns:xlink="http://www.w3.org/1999/xlink">
    <title>Artboard</title>
    <g id="Artboard" stroke="none" stroke-width="1" fill="none" fill-rule="evenodd">
        <g id="brigade" transform="translate(2.027125, 1.962962)" fill="#191051">
            <path d="M29.11,109.125855 L2.84217094e-14,109.125855 L2.84217094e-14,9.725855 L30.956,9.725855 C47.996,9.725855 56.8,19.807855 56.8,32.871855 C56.8,41.959855 52.54,47.781855 46.008,51.473855 C58.646,55.733855 66.598,65.247855 66.598,78.453855 C66.598,95.777855 55.38,109.125855 29.11,109.125855 Z M20.164,92.511855 L31.666,92.511855 C51.688,92.511855 50.694,63.685855 31.808,63.685855 L20.164,63.685855 L20.164,92.511855 Z M20.164,45.367855 L28.116,45.367855 C39.902,45.367855 42.316,24.209855 28.116,24.209855 L20.164,24.209855 L20.164,45.367855 Z M100.106,74.903855 L100.106,109.125855 L80.226,109.125855 L80.226,39.829855 L100.106,39.829855 L100.106,44.515855 C100.106,46.077855 99.822,48.633855 99.396,51.331855 C103.372,43.805855 109.62,38.125855 118.708,38.125855 L118.708,57.579855 C108.342,57.579855 100.106,63.543855 100.106,74.903855 Z M154.367859,109.125855 L134.061859,109.125855 L134.061859,39.829855 L154.367859,39.829855 L154.367859,109.125855 Z M207.227719,38.409855 C211.913719,38.409855 216.457719,39.261855 220.433719,40.965855 L229.237719,30.883855 L240.881719,41.817855 L232.645719,50.053855 C236.621719,54.881855 238.893719,60.845855 238.893719,67.377855 C238.893719,84.701855 224.693719,96.203855 207.227719,96.203855 C203.109719,96.203855 199.559719,95.777855 196.151719,94.925855 C190.045719,100.037855 189.477719,111.285855 198.849719,111.285855 C205.381719,111.285855 209.641719,108.587855 219.155719,108.587855 C255.365719,108.587855 255.081719,159.139855 207.227719,159.139855 C171.301719,159.139855 163.917719,135.851855 176.129719,119.805855 C171.017719,111.853855 173.147719,94.641855 182.661719,87.257855 C177.975719,82.287855 175.419719,75.471855 175.419719,67.377855 C175.419719,50.053855 189.761719,38.409855 207.227719,38.409855 Z M194.163719,67.377855 C194.163719,75.613855 199.701719,79.873855 207.227719,79.873855 C215.037719,79.873855 220.149719,75.471855 220.149719,67.377855 C220.149719,59.141855 215.037719,54.455855 207.227719,54.455855 C199.275719,54.455855 194.163719,59.283855 194.163719,67.377855 Z M193.027719,128.183855 C191.749719,128.183855 190.471719,128.041855 189.335719,127.899855 C185.501719,135.141855 190.187719,142.241855 207.227719,142.241855 C232.219719,142.241855 231.509719,124.917855 218.445719,124.917855 C210.777719,124.917855 203.109719,128.183855 193.027719,128.183855 Z M322.107719,109.125855 L315.149719,109.125855 C306.629719,109.125855 300.807719,104.581855 297.683719,97.339855 C293.707719,104.013855 285.329719,110.545855 272.975719,110.545855 C257.639719,110.545855 249.829719,100.605855 249.829719,90.239855 C249.829719,78.737855 259.201719,67.519855 278.513719,67.519855 C284.335719,67.519855 290.015719,68.229855 295.269719,69.223855 L295.269719,66.951855 C295.269719,60.135855 290.583719,55.591855 282.915719,55.591855 C277.519719,55.591855 273.117719,58.005855 270.277719,62.549855 L256.361719,52.183855 C256.361719,52.183855 264.313719,37.983855 283.909719,37.983855 C303.221719,37.983855 315.007719,49.485855 315.007719,66.099855 L315.007719,86.973855 C315.007719,89.529855 316.711719,91.091855 319.267719,91.091855 L322.107719,91.091855 L322.107719,109.125855 Z M278.087719,94.925855 C286.465719,94.925855 292.713719,89.103855 295.269719,81.577855 C291.577719,80.867855 287.033719,80.157855 284.335719,80.157855 C276.241719,80.157855 269.993719,82.855855 269.993719,88.535855 C269.993719,92.369855 272.833719,94.925855 278.087719,94.925855 Z M480.169719,78.737855 L432.883719,78.737855 C434.303719,90.239855 441.403719,94.499855 449.213719,94.499855 C456.881719,94.499855 462.135719,90.949855 465.543719,85.979855 L478.749719,95.493855 C471.365719,105.433855 463.839719,110.545855 448.077719,110.545855 C427.771719,110.545855 412.861719,95.635855 412.861719,74.335855 C412.861719,54.597855 426.209719,38.267855 447.509719,38.267855 C470.939719,38.267855 480.169719,55.023855 480.169719,76.323855 L480.169719,78.737855 Z M447.367719,54.455855 C440.977719,54.455855 435.439719,58.431855 433.451719,66.525855 L460.857719,66.525855 C459.579719,58.573855 453.473719,54.455855 447.367719,54.455855 Z" id="Brigade" fill-rule="nonzero"></path>
            <g id="Combined-Shape" transform="translate(331.472875, 0.000000)" fill-rule="nonzero">
                <path d="M50.523763,0.033783 C63.601904,3.711111 70.140974,11.66716 70.140974,23.901929 C70.140974,24.164731 70.143316,24.420092 70.148,24.668013 L70.148,109.125855 L50.978,109.125855 L50.978,100.037855 C45.44,106.569855 38.056,110.545855 29.962,110.545855 C10.508,110.545855 0,92.937855 0,74.193855 C0,55.733855 10.934,38.267855 30.104,38.267855 C37.772,38.267855 44.872,41.107855 50.268,46.787855 L50.268,0 L50.523763,0.033783 Z M35.216,92.937855 C44.304,92.937855 50.552,83.849855 50.552,74.335855 C50.552,63.685855 44.446,56.017855 35.216,56.017855 C24.85,56.017855 19.738,64.253855 19.738,74.477855 C19.738,84.559855 24.992,92.937855 35.216,92.937855 Z" id="path-5"></path>
            </g>
            <ellipse id="Oval" cx="144.563719" cy="20" rx="10.4" ry="10"></ellipse>
        </g>
    </g>
</svg>